<?xml version="1.0" encoding="UTF-8"?>
<svg version="1.1" xmlns="http://www.w3.org/2000/svg" width="192" height="192">
<path d="M0 0 C5.15101267 2.90329805 8.2682519 6.49270852 10.8125 11.8125 C12.74322061 21.46610305 10.17946585 29.00585692 6.4375 37.9375 C6.1075 38.2675 5.7775 38.5975 5.4375 38.9375 C30.17441096 44.35559059 30.17441096 44.35559059 55.0625 49 C64.34059057 50.54369754 73.58143011 52.25245518 82.8168335 54.0319519 C84.41643772 54.33965453 86.01640516 54.64547606 87.61676025 54.94924927 C110.48919327 59.29617619 110.48919327 59.29617619 119.4375 64.9375 C119.4375 65.5975 119.4375 66.2575 119.4375 66.9375 C120.03433594 67.19273438 120.63117188 67.44796875 121.24609375 67.7109375 C123.67455122 69.07018107 124.84221526 70.34327883 126.5 72.5625 C126.98597656 73.19414063 127.47195312 73.82578125 127.97265625 74.4765625 C131.7598334 80.83902011 133.02246577 86.82771449 133 94.1875 C132.99637451 95.43321777 132.99637451 95.43321777 132.99267578 96.70410156 C132.69539376 106.71065335 128.46149091 114.21534083 121.9296875 121.6328125 C120.20583534 123.14005497 118.51606038 123.98449968 116.4375 124.9375 C115.798125 125.27910156 115.15875 125.62070313 114.5 125.97265625 C103.02628752 131.68778197 89.71295769 130.31514285 77.4375 127.9375 C75.7615138 127.29462171 74.0936694 126.62983311 72.4375 125.9375 C70.21838992 125.50696607 67.98751377 125.1339672 65.75 124.8125 C64.61175781 124.64492187 63.47351563 124.47734375 62.30078125 124.3046875 C59.58799579 123.89510052 59.58799579 123.89510052 57.4375 123.9375 C57.4375 123.2775 57.4375 122.6175 57.4375 121.9375 C56.35082031 121.98648438 55.26414062 122.03546875 54.14453125 122.0859375 C48.62941412 122.08351167 43.47138467 120.81385631 38.125 119.5625 C31.47308852 118.04003989 24.8344511 116.60761388 18.11401367 115.41992188 C12.9619351 114.49129766 7.83897677 113.41113145 2.71289062 112.34960938 C-2.36910944 111.31578083 -7.40800506 110.51418513 -12.5625 109.9375 C-12.5625 109.2775 -12.5625 108.6175 -12.5625 107.9375 C-13.5525 108.2675 -14.5425 108.5975 -15.5625 108.9375 C-18.26171875 108.59765625 -18.26171875 108.59765625 -21.25 108 C-22.24386719 107.80535156 -23.23773438 107.61070313 -24.26171875 107.41015625 C-25.40060547 107.17619141 -25.40060547 107.17619141 -26.5625 106.9375 C-26.5625 106.2775 -26.5625 105.6175 -26.5625 104.9375 C-28.0475 105.4325 -28.0475 105.4325 -29.5625 105.9375 C-37.97971078 101.98355545 -45.53118321 95.82529544 -49.4375 87.25 C-52.98396803 76.80762192 -52.97021654 65.07753183 -48.5625 54.9375 C-48.2325 53.9475 -47.9025 52.9575 -47.5625 51.9375 C-46.9025 51.9375 -46.2425 51.9375 -45.5625 51.9375 C-43.98976432 49.0950146 -43.98976432 49.0950146 -43.5625 45.9375 C-44.5525 45.2775 -45.5425 44.6175 -46.5625 43.9375 C-46.5625 43.2775 -46.5625 42.6175 -46.5625 41.9375 C-47.2225 41.9375 -47.8825 41.9375 -48.5625 41.9375 C-53.35677839 36.57466937 -55.20466345 30.0022159 -55.5625 22.9375 C-55.17765827 20.06250588 -54.50125224 17.70160383 -53.5625 14.9375 C-52.9025 14.9375 -52.2425 14.9375 -51.5625 14.9375 C-51.52125 14.36 -51.48 13.7825 -51.4375 13.1875 C-50.08999089 9.72247659 -47.73966783 8.70938206 -44.5625 6.9375 C-38.01891346 4.92408876 -31.91312633 5.8638261 -25.5625 7.9375 C-24.881875 7.174375 -24.20125 6.41125 -23.5 5.625 C-16.9299853 -0.38586451 -8.61219752 -2.56855014 0 0 Z " fill="#DBABBE" transform="translate(56.5625,18.0625)"/>
<path d="M0 0 C9.06130382 0.45805623 17.60440197 1.78057533 26.4375 3.8125 C36.15798387 5.99185558 45.86053739 7.99855792 55.72045898 9.44262695 C65.50781119 11.04440433 74.35453097 15.54111329 81 23 C86.41275005 31.37799573 86.98889381 40.24547468 86 50 C83.51601294 57.99275541 79.18425663 64.5933434 72 69 C60.85675856 74.59302259 52.61501527 75.14483133 40.82421875 71.9140625 C35.81564593 70.71691639 30.77154989 69.93095859 25.6875 69.125 C17.11106296 67.75036294 8.61158857 66.164681 0.125 64.3125 C-0.86153564 64.09803223 -1.84807129 63.88356445 -2.86450195 63.66259766 C-9.72402029 62.13798986 -9.72402029 62.13798986 -12 61 C-11.37989332 57.49232587 -10.45943064 54.324249 -9.1875 51 C-2.83652219 33.81771823 -0.62326941 18.19389279 0 0 Z " fill="#E1F6F9" transform="translate(99,70)"/>
<path d="M0 0 C3.5247258 2.57767826 5.33330992 4.57283471 6.5625 8.875 C8.59814206 25.76157619 -0.74899083 39.38519859 -10.625 52.25 C-13.4375 54.875 -13.4375 54.875 -16.1328125 55.2890625 C-20.46198198 54.74663701 -23.41357921 53.08264777 -27.125 50.875 C-27.82544434 50.46709229 -28.52588867 50.05918457 -29.24755859 49.63891602 C-39.369161 43.65522873 -48.84599795 37.87425458 -53.8125 26.8125 C-55.18683974 20.3531032 -54.62487891 15.70020974 -51.4375 9.875 C-46.88626127 5.65677874 -44.25889011 4.72223324 -38.125 4.6875 C-36.99449219 4.67332031 -35.86398438 4.65914062 -34.69921875 4.64453125 C-31.50545157 4.87019863 -29.3098571 5.51157346 -26.4375 6.875 C-25.76654297 6.15183594 -25.76654297 6.15183594 -25.08203125 5.4140625 C-18.08671244 -1.89447954 -9.57872692 -5.49628058 0 0 Z " fill="#D5A5C9" transform="translate(58.4375,22.125)"/>
<path d="M0 0 C5.15101267 2.90329805 8.2682519 6.49270852 10.8125 11.8125 C12.74322061 21.46610305 10.17946585 29.00585692 6.4375 37.9375 C6.1075 38.2675 5.7775 38.5975 5.4375 38.9375 C30.17441096 44.35559059 30.17441096 44.35559059 55.0625 49 C64.34059057 50.54369754 73.58143011 52.25245518 82.8168335 54.0319519 C84.41643772 54.33965453 86.01640516 54.64547606 87.61676025 54.94924927 C110.48919327 59.29617619 110.48919327 59.29617619 119.4375 64.9375 C119.4375 65.5975 119.4375 66.2575 119.4375 66.9375 C120.03433594 67.19273438 120.63117188 67.44796875 121.24609375 67.7109375 C123.67455122 69.07018107 124.84221526 70.34327883 126.5 72.5625 C126.98597656 73.19414063 127.47195312 73.82578125 127.97265625 74.4765625 C131.7598334 80.83902011 133.02246577 86.82771449 133 94.1875 C132.99637451 95.43321777 132.99637451 95.43321777 132.99267578 96.70410156 C132.69539376 106.71065335 128.46149091 114.21534083 121.9296875 121.6328125 C120.20583534 123.14005497 118.51606038 123.98449968 116.4375 124.9375 C115.798125 125.27910156 115.15875 125.62070313 114.5 125.97265625 C103.02628752 131.68778197 89.71295769 130.31514285 77.4375 127.9375 C75.7615138 127.29462171 74.0936694 126.62983311 72.4375 125.9375 C70.21838992 125.50696607 67.98751377 125.1339672 65.75 124.8125 C64.61175781 124.64492187 63.47351563 124.47734375 62.30078125 124.3046875 C59.58799579 123.89510052 59.58799579 123.89510052 57.4375 123.9375 C57.4375 123.2775 57.4375 122.6175 57.4375 121.9375 C56.35082031 121.98648438 55.26414062 122.03546875 54.14453125 122.0859375 C48.62941412 122.08351167 43.47138467 120.81385631 38.125 119.5625 C31.47308852 118.04003989 24.8344511 116.60761388 18.11401367 115.41992188 C12.9619351 114.49129766 7.83897677 113.41113145 2.71289062 112.34960938 C-2.36910944 111.31578083 -7.40800506 110.51418513 -12.5625 109.9375 C-12.5625 109.2775 -12.5625 108.6175 -12.5625 107.9375 C-13.5525 108.2675 -14.5425 108.5975 -15.5625 108.9375 C-18.26171875 108.59765625 -18.26171875 108.59765625 -21.25 108 C-22.24386719 107.80535156 -23.23773438 107.61070313 -24.26171875 107.41015625 C-25.40060547 107.17619141 -25.40060547 107.17619141 -26.5625 106.9375 C-26.5625 106.2775 -26.5625 105.6175 -26.5625 104.9375 C-28.0475 105.4325 -28.0475 105.4325 -29.5625 105.9375 C-37.97971078 101.98355545 -45.53118321 95.82529544 -49.4375 87.25 C-52.98396803 76.80762192 -52.97021654 65.07753183 -48.5625 54.9375 C-48.2325 53.9475 -47.9025 52.9575 -47.5625 51.9375 C-46.9025 51.9375 -46.2425 51.9375 -45.5625 51.9375 C-43.98976432 49.0950146 -43.98976432 49.0950146 -43.5625 45.9375 C-44.5525 45.2775 -45.5425 44.6175 -46.5625 43.9375 C-46.5625 43.2775 -46.5625 42.6175 -46.5625 41.9375 C-47.2225 41.9375 -47.8825 41.9375 -48.5625 41.9375 C-53.35677839 36.57466937 -55.20466345 30.0022159 -55.5625 22.9375 C-55.17765827 20.06250588 -54.50125224 17.70160383 -53.5625 14.9375 C-52.9025 14.9375 -52.2425 14.9375 -51.5625 14.9375 C-51.52125 14.36 -51.48 13.7825 -51.4375 13.1875 C-50.08999089 9.72247659 -47.73966783 8.70938206 -44.5625 6.9375 C-38.01891346 4.92408876 -31.91312633 5.8638261 -25.5625 7.9375 C-24.881875 7.174375 -24.20125 6.41125 -23.5 5.625 C-16.9299853 -0.38586451 -8.61219752 -2.56855014 0 0 Z M-25.5625 10.9375 C-26.09101563 10.61523438 -26.61953125 10.29296875 -27.1640625 9.9609375 C-32.26406954 7.784713 -39.43246716 7.79609705 -44.640625 9.6953125 C-48.13433824 11.93622958 -50.77928008 14.87264748 -52.25 18.75 C-53.29739658 26.08177604 -52.22172891 31.63580617 -48.3671875 37.87109375 C-43.17260371 44.62949203 -35.66312046 48.61598743 -28.41992188 52.84814453 C-26.84520549 53.77169665 -25.28772958 54.72454748 -23.734375 55.68359375 C-20.62937077 57.54765241 -17.95153689 58.83635041 -14.4375 59.75 C-6.26670092 57.44086113 -1.56238347 46.57334664 2.4140625 39.609375 C7.42365774 30.60222397 9.54233123 23.39843371 8.4375 12.9375 C6.9827152 7.84575322 4.24076686 5.41312196 -0.24609375 2.8515625 C-10.5453693 -1.21256984 -18.17377901 4.18272253 -25.5625 10.9375 Z M1.4375 42.9375 C-0.2619349 45.17874081 -1.86446485 47.42255003 -3.4375 49.75 C-9.08431322 58.10292697 -9.08431322 58.10292697 -12.5625 59.9375 C-17.31363434 60.81228656 -20.63865763 58.51871153 -24.5625 56.125 C-25.16578125 55.76857422 -25.7690625 55.41214844 -26.390625 55.04492188 C-29.07850524 53.45264499 -31.73779881 51.82559158 -34.37109375 50.14453125 C-36.46708353 48.6686125 -36.46708353 48.6686125 -38.625 49.4375 C-43.17266679 52.95827429 -45.8240318 57.50927708 -47.5625 62.9375 C-47.84322474 65.68695118 -47.99508836 68.14151602 -47.9375 70.875 C-47.92589844 71.58156738 -47.91429687 72.28813477 -47.90234375 73.01611328 C-47.58015025 83.26707856 -43.7326664 89.62871878 -36.5625 96.9375 C-27.46448201 104.16087912 -14.89271769 105.05491268 -3.75390625 106.41015625 C-0.51338682 106.9456154 2.32970799 107.88847286 5.4375 108.9375 C8.10470421 109.52363964 10.75423237 110.06821386 13.4375 110.5625 C14.46617188 110.76359375 14.46617188 110.76359375 15.515625 110.96875 C19.54298793 111.7219591 23.34321228 112.07824114 27.4375 111.9375 C37.20373718 91.94788262 41.04338583 73.04111254 40.4375 50.9375 C35.73783642 49.54252825 31.07425629 48.38981876 26.26171875 47.4296875 C25.61048538 47.29934113 24.95925201 47.16899475 24.2882843 47.03469849 C22.926434 46.76279261 21.56430315 46.49228834 20.2019043 46.22314453 C18.11236627 45.81000206 16.0239185 45.39165063 13.93554688 44.97265625 C7.73100428 43.54483753 7.73100428 43.54483753 1.4375 42.9375 Z M42.4375 51.9375 C42.42291748 52.48986328 42.40833496 53.04222656 42.39331055 53.61132812 C41.85440099 71.99899821 40.30207333 90.4997739 31.78125 107.1796875 C30.2184889 109.87568759 30.2184889 109.87568759 30.4375 112.9375 C31.23671875 113.11925781 32.0359375 113.30101562 32.859375 113.48828125 C38.18143377 114.70635808 43.48063012 115.94575213 48.75 117.375 C55.95792112 119.213068 63.2994179 120.27754045 70.63842773 121.44799805 C75.94360322 122.30707358 81.12429397 123.25905886 86.3125 124.6875 C96.77517538 127.42881233 104.75899396 125.7953417 114.4375 120.9375 C121.63593248 116.52214827 125.92300919 109.9322913 128.4375 101.9375 C129.66518154 91.99429418 128.44920848 84.61341213 123.8125 75.875 C114.89007235 64.8393658 103.80417668 62.39953488 90.5 60.0625 C87.62680271 59.54605053 84.75472381 59.02354836 81.8828125 58.5 C80.8096302 58.30532639 80.8096302 58.30532639 79.71476746 58.10671997 C72.09472019 56.71360337 64.52215845 55.10282138 56.96313477 53.41064453 C51.99724353 52.33170438 47.52044134 51.70043552 42.4375 51.9375 Z " fill="#4B5239" transform="translate(56.5625,18.0625)"/>
<path d="M0 0 C1.96543633 3.57352059 2.19072626 6.58588493 1.375 10.5 C-0.40452351 14.61720015 -2.44402017 18.31902017 -5.625 21.5 C-7.7890625 21.2578125 -7.7890625 21.2578125 -10.25 20.625 C-11.06726562 20.42132813 -11.88453125 20.21765625 -12.7265625 20.0078125 C-13.35304687 19.84023438 -13.97953125 19.67265625 -14.625 19.5 C-15.12 17.52 -15.12 17.52 -15.625 15.5 C-14.965 15.5 -14.305 15.5 -13.625 15.5 C-13.625 16.16 -13.625 16.82 -13.625 17.5 C-11.975 17.5 -10.325 17.5 -8.625 17.5 C-9.615 15.85 -10.605 14.2 -11.625 12.5 C-13.935 12.83 -16.245 13.16 -18.625 13.5 C-19.285 15.81 -19.945 18.12 -20.625 20.5 C-21.285 20.17 -21.945 19.84 -22.625 19.5 C-23.25 17.4375 -23.25 17.4375 -23.625 15.5 C-25.605 15.5 -27.585 15.5 -29.625 15.5 C-29.625 17.81 -29.625 20.12 -29.625 22.5 C-30.285 21.84 -30.945 21.18 -31.625 20.5 C-31.625 19.51 -31.625 18.52 -31.625 17.5 C-33.935 17.5 -36.245 17.5 -38.625 17.5 C-38.42003906 18.2734375 -38.21507812 19.046875 -38.00390625 19.84375 C-36.47980885 25.7359543 -35.20763288 31.44061808 -34.625 37.5 C-32.645 37.005 -32.645 37.005 -30.625 36.5 C-30.955 34.19 -31.285 31.88 -31.625 29.5 C-30.965 29.83 -30.305 30.16 -29.625 30.5 C-29 33.5625 -29 33.5625 -28.625 36.5 C-27.635 36.5 -26.645 36.5 -25.625 36.5 C-25.625 33.53 -25.625 30.56 -25.625 27.5 C-23.4730563 30.72791555 -23.42413557 31.78400809 -23.625 35.5 C-22.305 35.83 -20.985 36.16 -19.625 36.5 C-21.03968311 37.46125903 -22.4568364 38.41888325 -23.875 39.375 C-24.66390625 39.90867188 -25.4528125 40.44234375 -26.265625 40.9921875 C-31.68620858 44.45633528 -31.68620858 44.45633528 -35.3125 44.625 C-41.61383299 42.48492464 -46.74555216 37.44819307 -50.125 31.75 C-52.97047898 25.58479555 -53.57069314 20.43662606 -51.4375 13.8125 C-49.20727554 9.73657255 -46.75178055 7.56339028 -42.625 5.5 C-40.52351818 5.37672071 -38.41756093 5.32441994 -36.3125 5.3125 C-35.18199219 5.29832031 -34.05148438 5.28414062 -32.88671875 5.26953125 C-29.69295157 5.49519863 -27.4973571 6.13657346 -24.625 7.5 C-23.95404297 6.77683594 -23.95404297 6.77683594 -23.26953125 6.0390625 C-17.04218008 -0.46712529 -8.82817378 -5.04467073 0 0 Z " fill="#E4BBD8" transform="translate(56.625,21.5)"/>
<path d="M0 0 C1.29562866 0.45947021 1.29562866 0.45947021 2.61743164 0.92822266 C5.8019073 1.93723371 8.83036293 2.5978095 12.12109375 3.1484375 C13.87993896 3.44669434 13.87993896 3.44669434 15.67431641 3.75097656 C16.91616699 3.9569043 18.15801758 4.16283203 19.4375 4.375 C22.03777943 4.8149918 24.63803958 5.25509757 27.23828125 5.6953125 C29.18661865 6.02257324 29.18661865 6.02257324 31.17431641 6.35644531 C36.82691634 7.307323 42.4764641 8.27531126 48.125 9.25 C49.5625061 9.49435791 49.5625061 9.49435791 51.02905273 9.74365234 C51.90891846 9.89527832 52.78878418 10.0469043 53.6953125 10.203125 C54.45859863 10.33364258 55.22188477 10.46416016 56.00830078 10.59863281 C58 11 58 11 61 12 C70.15612092 12.79335707 79.67072682 12.26930724 87.12109375 6.30078125 C87.74113281 5.87152344 88.36117187 5.44226563 89 5 C89.99 5.33 90.98 5.66 92 6 C86.39994821 13.76908594 78.56707529 19.22687607 69 21 C62.55086663 21.60752706 57.02004852 20.61176746 50.82421875 18.9140625 C45.81564593 17.71691639 40.77154989 16.93095859 35.6875 16.125 C27.11106296 14.75036294 18.61158857 13.164681 10.125 11.3125 C9.13846436 11.09803223 8.15192871 10.88356445 7.13549805 10.66259766 C0.27597971 9.13798986 0.27597971 9.13798986 -2 8 C-1.47731534 5.23723823 -0.89130413 2.6739124 0 0 Z " fill="#C8DEE0" transform="translate(89,123)"/>
<path d="M0 0 C0.33 0 0.66 0 1 0 C1.13535156 0.90621094 1.27070313 1.81242187 1.41015625 2.74609375 C3.31986486 13.55252868 6.62338026 19.93862777 15.41015625 26.55078125 C21.36970434 30.63675174 27.35262926 31.94314625 34.375 33.25 C36.67478276 33.7120331 38.97426491 34.17556509 41.2734375 34.640625 C42.39556641 34.86129639 43.51769531 35.08196777 44.67382812 35.30932617 C48.90207758 36.18731485 53.07173323 37.25066709 57.25439453 38.32177734 C61.06150174 39.26221339 64.89037425 40.00042654 68.75 40.6875 C69.45898438 40.81705078 70.16796875 40.94660156 70.8984375 41.08007812 C72.59832813 41.39019331 74.29906851 41.69564551 76 42 C77 45 77 45 76.0625 47.1875 C75.711875 47.785625 75.36125 48.38375 75 49 C68.50007728 48.60064034 62.14522377 47.75825188 55.75 46.5625 C55.08935547 46.44028076 54.42871094 46.31806152 53.74804688 46.19213867 C50.62355565 45.590463 47.59041251 44.8804023 44.53515625 43.98828125 C40.603156 42.88905908 36.71450852 42.25200031 32.6875 41.625 C21.14160345 39.69527151 12.43379027 36.8729957 5.3125 27.125 C0.78304603 20.71747975 -0.3050161 15.28260783 -0.125 7.625 C-0.11597656 6.88894531 -0.10695313 6.15289062 -0.09765625 5.39453125 C-0.07430144 3.5962112 -0.03843836 1.79806089 0 0 Z " fill="#C88AA1" transform="translate(9,81)"/>
<path d="M0 0 C5.15101267 2.90329805 8.2682519 6.49270852 10.8125 11.8125 C12.74322061 21.46610305 10.17946585 29.00585692 6.4375 37.9375 C6.1075 38.2675 5.7775 38.5975 5.4375 38.9375 C17.9775 41.5775 30.5175 44.2175 43.4375 46.9375 C43.4375 47.2675 43.4375 47.5975 43.4375 47.9375 C37.9353184 48.16886637 33.29896222 47.3725346 28 45.9375 C27.26845703 45.74671875 26.53691406 45.5559375 25.78320312 45.359375 C23.99930334 44.89299597 22.21810155 44.41631722 20.4375 43.9375 C20.4375 44.5975 20.4375 45.2575 20.4375 45.9375 C21.9225 46.4325 21.9225 46.4325 23.4375 46.9375 C16.06096781 46.18734418 8.75918224 45.10308465 1.4375 43.9375 C0.84582031 44.82953125 0.25414062 45.7215625 -0.35546875 46.640625 C-1.15323397 47.82319462 -1.95143425 49.00547082 -2.75 50.1875 C-3.13736328 50.77402344 -3.52472656 51.36054687 -3.92382812 51.96484375 C-6.80454264 56.20258908 -9.63657681 60.33595329 -14.9375 61.42578125 C-18.58286694 60.7476996 -21.44041158 59.02960736 -24.5625 57.125 C-25.16578125 56.76857422 -25.7690625 56.41214844 -26.390625 56.04492188 C-29.05965262 54.46381312 -31.70031934 52.84920948 -34.3125 51.17578125 C-36.57250424 49.69642386 -36.57250424 49.69642386 -39.5625 49.9375 C-39.8925 49.2775 -40.2225 48.6175 -40.5625 47.9375 C-41.01625 48.5975 -41.47 49.2575 -41.9375 49.9375 C-42.47375 50.5975 -43.01 51.2575 -43.5625 51.9375 C-44.2225 51.9375 -44.8825 51.9375 -45.5625 51.9375 C-45.0675 51.009375 -45.0675 51.009375 -44.5625 50.0625 C-43.42056765 48.02731656 -43.42056765 48.02731656 -43.5625 45.9375 C-44.5525 45.2775 -45.5425 44.6175 -46.5625 43.9375 C-46.5625 43.2775 -46.5625 42.6175 -46.5625 41.9375 C-47.2225 41.9375 -47.8825 41.9375 -48.5625 41.9375 C-53.35677839 36.57466937 -55.20466345 30.0022159 -55.5625 22.9375 C-55.17765827 20.06250588 -54.50125224 17.70160383 -53.5625 14.9375 C-52.9025 14.9375 -52.2425 14.9375 -51.5625 14.9375 C-51.52125 14.36 -51.48 13.7825 -51.4375 13.1875 C-50.08999089 9.72247659 -47.73966783 8.70938206 -44.5625 6.9375 C-38.01891346 4.92408876 -31.91312633 5.8638261 -25.5625 7.9375 C-24.881875 7.174375 -24.20125 6.41125 -23.5 5.625 C-16.9299853 -0.38586451 -8.61219752 -2.56855014 0 0 Z M-25.5625 10.9375 C-26.09101563 10.61523438 -26.61953125 10.29296875 -27.1640625 9.9609375 C-32.26406954 7.784713 -39.43246716 7.79609705 -44.640625 9.6953125 C-48.13433824 11.93622958 -50.77928008 14.87264748 -52.25 18.75 C-53.29739658 26.08177604 -52.22172891 31.63580617 -48.3671875 37.87109375 C-43.17260371 44.62949203 -35.66312046 48.61598743 -28.41992188 52.84814453 C-26.84520549 53.77169665 -25.28772958 54.72454748 -23.734375 55.68359375 C-20.62937077 57.54765241 -17.95153689 58.83635041 -14.4375 59.75 C-6.26670092 57.44086113 -1.56238347 46.57334664 2.4140625 39.609375 C7.42365774 30.60222397 9.54233123 23.39843371 8.4375 12.9375 C6.9827152 7.84575322 4.24076686 5.41312196 -0.24609375 2.8515625 C-10.5453693 -1.21256984 -18.17377901 4.18272253 -25.5625 10.9375 Z " fill="#614352" transform="translate(56.5625,18.0625)"/>
<path d="M0 0 C4.01147523 0.42980092 7.67136692 0.90775212 11.5625 2 C16.75336045 3.3979347 22.06684907 3.42125544 27.41015625 3.71484375 C31.50482602 4.04010043 35.08432793 4.80132488 39 6 C39 6.66 39 7.32 39 8 C41.31 8.33 43.62 8.66 46 9 C46 9.33 46 9.66 46 10 C37.7943963 10.29599372 30.07562173 9.43794854 22 8 C22.01571045 8.55236328 22.0314209 9.10472656 22.04760742 9.67382812 C22.57184331 31.03256963 19.20804777 49.56078804 10 69 C11.32 69.66 12.64 70.32 14 71 C14 71.33 14 71.66 14 72 C6.52605426 72.37369729 0.17859349 71.04061541 -7 69 C-7 68.34 -7 67.68 -7 67 C-2.38 67 2.24 67 7 67 C15.3280466 46.68522613 19.8354258 29.02275224 19 7 C13.72 6.01 8.44 5.02 3 4 C3 3.34 3 2.68 3 2 C2.01 2 1.02 2 0 2 C0 1.34 0 0.68 0 0 Z " fill="#424A2B" transform="translate(77,62)"/>
<path d="M0 0 C0.67286212 2.41509441 1.33846012 4.83180356 2 7.25 C2.19078125 7.93191406 2.3815625 8.61382812 2.578125 9.31640625 C3.49957044 12.70600912 4 15.45778976 4 19 C2.35 19 0.7 19 -1 19 C-1.33 17.68 -1.66 16.36 -2 15 C-2.33 16.98 -2.66 18.96 -3 21 C-3.99 21 -4.98 21 -6 21 C-6.66 19.68 -7.32 18.36 -8 17 C-8 18.32 -8 19.64 -8 21 C-9.32 21.33 -10.64 21.66 -12 22 C-12.67668949 19.79471728 -13.34093498 17.58561391 -14 15.375 C-14.37125 14.14523438 -14.7425 12.91546875 -15.125 11.6484375 C-15.93727719 8.26153174 -16.17041013 5.46145571 -16 2 C-13.69 2 -11.38 2 -9 2 C-8.67 2.99 -8.34 3.98 -8 5 C-7.67 3.35 -7.34 1.7 -7 0 C-3.86650268 -1.04449911 -3.01031744 -0.93423645 0 0 Z " fill="#271341" transform="translate(34,37)"/>
<path d="M0 0 C5.625 -0.25 5.625 -0.25 9 2 C9.70759023 7.77865351 8.18928189 12.71396186 6 18 C5 19 5 19 2.0625 19.1875 C-1 19 -1 19 -3 17 C-3.78568159 10.75536189 -3.49306714 5.38514518 0 0 Z " fill="#352851" transform="translate(130,99)"/>
<path d="M0 0 C2 2 2 2 2 5 C0.35 5 -1.3 5 -3 5 C-3 4.34 -3 3.68 -3 3 C-3.66 3 -4.32 3 -5 3 C-4.67 3.99 -4.34 4.98 -4 6 C-1.67328135 7.01529541 0.6603447 8.01488198 3 9 C5.14762184 12.22143276 5.561068 13.2595467 5 17 C2.70430194 19.5605863 1.29906565 19.96411212 -2.125 20.375 C-3.07375 20.25125 -4.0225 20.1275 -5 20 C-7 17 -7 17 -7 13 C-5.35 13 -3.7 13 -2 13 C-2 13.99 -2 14.98 -2 16 C-1.34 16 -0.68 16 0 16 C-0.33 15.01 -0.66 14.02 -1 13 C-2.134375 12.525625 -3.26875 12.05125 -4.4375 11.5625 C-8 10 -8 10 -9.5 8.125 C-10.1542439 5.34446342 -9.98807197 3.68190963 -9 1 C-5.92048366 -1.41961998 -3.63199175 -1.14694476 0 0 Z " fill="#2B1643" transform="translate(46,34)"/>
<path d="M0 0 C4.455 0.99 4.455 0.99 9 2 C10.25301205 6.51084337 10.25301205 6.51084337 9.0625 8.8125 C7.42228252 12.18941835 7.87580369 15.27411082 8 19 C6.35 19 4.7 19 3 19 C3 16.69 3 14.38 3 12 C2.67 13.98 2.34 15.96 2 18 C0.35 18 -1.3 18 -3 18 C-2.4135682 11.8424661 -1.43270782 6.01737285 0 0 Z " fill="#281945" transform="translate(116,96)"/>
<path d="M0 0 C0.33 0 0.66 0 1 0 C1.13888345 1.76844926 1.23368806 3.54035721 1.3125 5.3125 C1.39951172 6.79169922 1.39951172 6.79169922 1.48828125 8.30078125 C1 12 1 12 -4 23 C8.54 25.64 21.08 28.28 34 31 C34 31.33 34 31.66 34 32 C28.4978184 32.23136637 23.86146222 31.4350346 18.5625 30 C17.83095703 29.80921875 17.09941406 29.6184375 16.34570312 29.421875 C14.56180334 28.95549597 12.78060155 28.47881722 11 28 C11 28.66 11 29.32 11 30 C11.99 30.33 12.98 30.66 14 31 C6.1753241 30.32545897 -1.34556614 28.73123042 -9 27 C-7.97292516 24.38951811 -6.91395232 21.80501376 -5.78125 19.23828125 C-2.9967757 12.87983232 -1.01852407 6.87123702 0 0 Z " fill="#555045" transform="translate(66,34)"/>
<path d="M0 0 C1.99954746 -0.04254356 4.00041636 -0.04080783 6 0 C7 1 7 1 7.11352539 2.76586914 C7.10828857 3.51473389 7.10305176 4.26359863 7.09765625 5.03515625 C7.09443359 5.84404297 7.09121094 6.65292969 7.08789062 7.48632812 C7.07951172 8.33646484 7.07113281 9.18660156 7.0625 10.0625 C7.05798828 10.91650391 7.05347656 11.77050781 7.04882812 12.65039062 C7.03700373 14.76695663 7.01906769 16.88348685 7 19 C5.35 19 3.7 19 2 19 C2 17.68 2 16.36 2 15 C1.34 15 0.68 15 0 15 C0 15.99 0 16.98 0 18 C-1.65 17.67 -3.3 17.34 -5 17 C-3.83348574 11.07136283 -2.24480642 5.61201606 0 0 Z " fill="#2B1543" transform="translate(74,88)"/>
<path d="M0 0 C2.31 0 4.62 0 7 0 C7 6.27 7 12.54 7 19 C5.35 18.67 3.7 18.34 2 18 C2 17.01 2 16.02 2 15 C1.34 15 0.68 15 0 15 C0 15.66 0 16.32 0 17 C-1.65 17 -3.3 17 -5 17 C-4.31063929 13.08878502 -3.21749819 9.44491404 -1.9375 5.6875 C-1.57527344 4.61886719 -1.21304688 3.55023438 -0.83984375 2.44921875 C-0.56269531 1.64097656 -0.28554687 0.83273438 0 0 Z " fill="#2B1C48" transform="translate(153,104)"/>
<path d="M0 0 C1.32 0 2.64 0 4 0 C4 1.98 4 3.96 4 6 C4.66 6 5.32 6 6 6 C6.33 4.35 6.66 2.7 7 1 C7.99 1 8.98 1 10 1 C9.41509121 7.14154225 8.45933748 13.00679849 7 19 C5.68 19 4.36 19 3 19 C3 17.35 3 15.7 3 14 C2.34 14 1.68 14 1 14 C1 14.99 1 15.98 1 17 C-0.32 17 -1.64 17 -3 17 C-2.69188262 14.54104382 -2.37871012 12.08291693 -2.0625 9.625 C-1.97548828 8.92632812 -1.88847656 8.22765625 -1.79882812 7.5078125 C-1.11328125 2.2265625 -1.11328125 2.2265625 0 0 Z " fill="#24103E" transform="translate(43,82)"/>
<path d="M0 0 C6.41659216 0.41168401 12.34345687 1.5207964 18.55078125 3.16796875 C25.29605875 4.79508552 32.15881044 5.85709985 39 7 C39 7.33 39 7.66 39 8 C36.36 8 33.72 8 31 8 C33.31 8.66 35.62 9.32 38 10 C38 10.33 38 10.66 38 11 C31.07 10.505 31.07 10.505 24 10 C24 9.34 24 8.68 24 8 C22.9275 8.0515625 21.855 8.103125 20.75 8.15625 C15.00007566 8.15625 9.57581012 6.79101986 4 5.5 C2.93910156 5.26152344 1.87820312 5.02304688 0.78515625 4.77734375 C-1.81171356 4.19246316 -4.40655735 3.59986124 -7 3 C-7 2.67 -7 2.34 -7 2 C-3.535 1.505 -3.535 1.505 0 1 C0 0.67 0 0.34 0 0 Z " fill="#5F6652" transform="translate(90,132)"/>
<path d="M0 0 C2.31 0.33 4.62 0.66 7 1 C7.09945415 7.11090483 7.0712828 12.97403427 6 19 C4.68 19 3.36 19 2 19 C2 17.68 2 16.36 2 15 C1.34 15 0.68 15 0 15 C0 15.99 0 16.98 0 18 C-1.65 18 -3.3 18 -5 18 C-3.9007105 11.68878497 -2.41862058 5.93661416 0 0 Z " fill="#271341" transform="translate(32,79)"/>
<path d="M0 0 C3.125 0.1875 3.125 0.1875 6.125 2.1875 C6.3125 5.8125 6.3125 5.8125 6.125 9.1875 C4.805 8.8575 3.485 8.5275 2.125 8.1875 C2.125 6.5375 2.125 4.8875 2.125 3.1875 C1.465 3.1875 0.805 3.1875 0.125 3.1875 C-0.535 7.1475 -1.195 11.1075 -1.875 15.1875 C-1.215 15.1875 -0.555 15.1875 0.125 15.1875 C0.125 14.1975 0.125 13.2075 0.125 12.1875 C1.775 12.1875 3.425 12.1875 5.125 12.1875 C4.375 16.9375 4.375 16.9375 2.125 19.1875 C-0.875 19.4375 -0.875 19.4375 -3.875 19.1875 C-5.875 17.1875 -5.875 17.1875 -6.125 13.5625 C-5.81168153 0.37902271 -5.81168153 0.37902271 0 0 Z " fill="#271743" transform="translate(167.875,105.8125)"/>
<path d="M0 0 C5.625 -0.25 5.625 -0.25 9 2 C9.40843923 4.71203652 9.13336867 7.2437142 9 10 C7.02 10.66 5.04 11.32 3 12 C2.67 13.98 2.34 15.96 2 18 C0.35 18 -1.3 18 -3 18 C-2.41509121 11.85845775 -1.45933748 5.99320151 0 0 Z " fill="#2A1B47" transform="translate(104,94)"/>
<path d="M0 0 C2.97 0.33 5.94 0.66 9 1 C8.34580901 6.06998019 6.1453591 10.41990777 4 15 C4.66 15 5.32 15 6 15 C6 16.32 6 17.64 6 19 C3.03 18.67 0.06 18.34 -3 18 C-2.41892368 14.2397015 -1.34800504 11.46964968 0.5625 8.1875 C1.01753906 7.39730469 1.47257813 6.60710937 1.94140625 5.79296875 C2.46541016 4.90544922 2.46541016 4.90544922 3 4 C2.01 4 1.02 4 0 4 C0 2.68 0 1.36 0 0 Z " fill="#2E204B" transform="translate(141,101)"/>
<path d="M0 0 C4.95 0.99 4.95 0.99 10 2 C10 2.99 10 3.98 10 5 C9.01 5 8.02 5 7 5 C6.34 9.62 5.68 14.24 5 19 C3.35 19 1.7 19 0 19 C0.61512818 13.99109914 1.2717552 8.99367864 2 4 C1.34 4 0.68 4 0 4 C0 2.68 0 1.36 0 0 Z " fill="#25113F" transform="translate(62,85)"/>
<path d="M0 0 C4.08110471 3.70669143 6.90389417 7.51947087 8 13 C8.13857202 16.00899238 8.12036651 18.99083726 8 22 C5 20 5 20 4.3046875 17.28515625 C4.16289063 16.22167969 4.02109375 15.15820312 3.875 14.0625 C3.43313356 10.87253437 3.01973404 8.05920211 2 5 C0.16715557 3.87483915 0.16715557 3.87483915 -2 3 C-2.53496094 2.65324219 -3.06992187 2.30648438 -3.62109375 1.94921875 C-7.1134159 0.5557306 -10.55276198 0.79008111 -14.25 0.875 C-14.99507812 0.88402344 -15.74015625 0.89304687 -16.5078125 0.90234375 C-18.33868059 0.92581642 -20.16938238 0.96168475 -22 1 C-21 -1 -21 -1 -17.875 -2.125 C-11.0344878 -3.66963179 -6.18821245 -3.48790156 0 0 Z " fill="#6E5862" transform="translate(60,20)"/>
<path d="M0 0 C1.65 0 3.3 0 5 0 C4.69012383 2.25036286 4.37700182 4.50027894 4.0625 6.75 C3.88847656 8.00296875 3.71445312 9.2559375 3.53515625 10.546875 C3.13950662 13.09982593 2.69553578 15.5186291 2 18 C0.35 18 -1.3 18 -3 18 C-2.32418477 11.91766294 -1.26361972 5.98685848 0 0 Z " fill="#2C1744" transform="translate(56,84)"/>
<path d="M0 0 C1.8871875 0.0309375 1.8871875 0.0309375 3.8125 0.0625 C3.4825 1.0525 3.1525 2.0425 2.8125 3.0625 C3.8025 3.0625 4.7925 3.0625 5.8125 3.0625 C6.1425 5.3725 6.4725 7.6825 6.8125 10.0625 C6.1525 10.0625 5.4925 10.0625 4.8125 10.0625 C4.8125 8.0825 4.8125 6.1025 4.8125 4.0625 C3.4925 4.0625 2.1725 4.0625 0.8125 4.0625 C-0.1775 9.6725 -1.1675 15.2825 -2.1875 21.0625 C-3.5075 20.7325 -4.8275 20.4025 -6.1875 20.0625 C-5.5275 20.0625 -4.8675 20.0625 -4.1875 20.0625 C-3.6925 11.1525 -3.6925 11.1525 -3.1875 2.0625 C-4.5075 1.7325 -5.8275 1.4025 -7.1875 1.0625 C-4.43671116 0.14557039 -2.82801087 -0.04636083 0 0 Z " fill="#BE93A9" transform="translate(42.1875,77.9375)"/>
<path d="M0 0 C0.90922753 2.47819942 1.18726604 3.57208067 0.109375 6.03515625 C-0.33921875 6.70417969 -0.7878125 7.37320313 -1.25 8.0625 C-1.68828125 8.73410156 -2.1265625 9.40570313 -2.578125 10.09765625 C-5.20453002 13.61155528 -7.98584806 16.13978325 -12 18 C-14.3125 17.1875 -14.3125 17.1875 -16 16 C-13.41339558 13.33731898 -10.88725156 10.90839189 -8 8.5625 C-4.87953971 5.89710684 -2.53657879 3.20802611 0 0 Z " fill="#414D2F" transform="translate(183,126)"/>
<path d="M0 0 C0.75 1.6875 0.75 1.6875 1 4 C-0.32732954 5.67145202 -1.66226218 7.33686649 -3 9 C-5.31393894 13.86891319 -7.06063687 18.68643079 -8 24 C-8.66 24 -9.32 24 -10 24 C-10.31461385 16.90370975 -10.44572039 11.31715405 -7 5 C-5.68 5 -4.36 5 -3 5 C-2.690625 4.360625 -2.38125 3.72125 -2.0625 3.0625 C-1 1 -1 1 0 0 Z " fill="#434B2F" transform="translate(16,65)"/>
<path d="M0 0 C6.71828758 -0.38555452 12.89822428 1.06407595 19.4375 2.5 C21.1071582 2.85771484 21.1071582 2.85771484 22.81054688 3.22265625 C25.54180031 3.80876214 28.27146868 4.40137252 31 5 C31 5.33 31 5.66 31 6 C26.21521178 6.09764874 21.72314313 5.77112541 17 5 C17.33 5.66 17.66 6.32 18 7 C11.91766294 6.32418477 5.98685848 5.26361972 0 4 C0 3.67 0 3.34 0 3 C1.65 2.67 3.3 2.34 5 2 C3.35 1.67 1.7 1.34 0 1 C0 0.67 0 0.34 0 0 Z " fill="#58604A" transform="translate(116,69)"/>
<path d="M0 0 C0.86367187 0.09023437 1.72734375 0.18046875 2.6171875 0.2734375 C4.84860645 0.58625324 6.95442758 1.02935454 9.125 1.625 C9.125 2.285 9.125 2.945 9.125 3.625 C11.435 3.955 13.745 4.285 16.125 4.625 C16.125 4.955 16.125 5.285 16.125 5.625 C7.9193963 5.92099372 0.20062173 5.06294854 -7.875 3.625 C-7.545 2.635 -7.215 1.645 -6.875 0.625 C-4.30943858 -0.65778071 -2.83571263 -0.31133937 0 0 Z " fill="#32421E" transform="translate(106.875,66.375)"/>
<path d="M0 0 C0.93423645 3.01031744 1.04449911 3.86650268 0 7 C1.32 7.66 2.64 8.32 4 9 C4 9.33 4 9.66 4 10 C-3.47394574 10.37369729 -9.82140651 9.04061541 -17 7 C-17 6.34 -17 5.68 -17 5 C-16.02417969 5.05800781 -15.04835938 5.11601562 -14.04296875 5.17578125 C-12.77066406 5.22089844 -11.49835938 5.26601562 -10.1875 5.3125 C-8.92292969 5.37050781 -7.65835938 5.42851562 -6.35546875 5.48828125 C-2.82042139 5.37053154 -2.82042139 5.37053154 -1.05078125 2.48046875 C-0.70402344 1.66191406 -0.35726562 0.84335938 0 0 Z " fill="#364321" transform="translate(87,124)"/>
<path d="M0 0 C12.0917676 0.3061207 23.27441801 2.05146184 35 5 C35 5.33 35 5.66 35 6 C29.4978184 6.23136637 24.86146222 5.4350346 19.5625 4 C18.83095703 3.80921875 18.09941406 3.6184375 17.34570312 3.421875 C15.56180334 2.95549597 13.78060155 2.47881722 12 2 C12 2.66 12 3.32 12 4 C12.99 4.33 13.98 4.66 15 5 C9.9697924 4.47462276 4.98114761 3.89405214 0 3 C0 2.01 0 1.02 0 0 Z " fill="#51573F" transform="translate(65,60)"/>
<path d="M0 0 C16.8929385 1.74259681 16.8929385 1.74259681 24 5 C24 5.33 24 5.66 24 6 C15.34984121 6.33128268 6.9523123 5.71107907 -1 2 C-0.67 1.34 -0.34 0.68 0 0 Z " fill="#3E4E2D" transform="translate(133,73)"/>
<path d="M0 0 C-0.33 0.33 -0.66 0.66 -1 1 C-0.34 1.66 0.32 2.32 1 3 C-4.66221678 6.61752739 -10.40232633 6.69040043 -17 7 C-17 6.34 -17 5.68 -17 5 C-14.03 5 -11.06 5 -8 5 C-8 4.34 -8 3.68 -8 3 C-8.99 2.67 -9.98 2.34 -11 2 C-9.54494642 1.47007308 -8.08581873 0.9513211 -6.625 0.4375 C-5.40683594 0.00244141 -5.40683594 0.00244141 -4.1640625 -0.44140625 C-2 -1 -2 -1 0 0 Z " fill="#555E47" transform="translate(169,141)"/>
<path d="M0 0 C1.32 0 2.64 0 4 0 C5.014244 3.84308783 4.94575648 6.38505059 3.8125 10.1875 C3.57144531 11.04730469 3.33039063 11.90710938 3.08203125 12.79296875 C1.78700374 15.43445086 0.70972895 15.99577333 -2 17 C-1.85915204 15.20793453 -1.71216299 13.41635083 -1.5625 11.625 C-1.48128906 10.62726563 -1.40007812 9.62953125 -1.31640625 8.6015625 C-1 6 -1 6 0 4 C0.99 4 1.98 4 3 4 C3 3.01 3 2.02 3 1 C2.01 0.67 1.02 0.34 0 0 Z " fill="#BB90A7" transform="translate(69,86)"/>
<path d="M0 0 C0.33 0.66 0.66 1.32 1 2 C1.66 2 2.32 2 3 2 C2.00956295 6.83628305 1.04301154 11.47618873 -1 16 C-2.32 15.67 -3.64 15.34 -5 15 C-4.01 15 -3.02 15 -2 15 C-2 13.68 -2 12.36 -2 11 C-2.66 11 -3.32 11 -4 11 C-3.39301257 6.87248551 -1.96189209 3.6678852 0 0 Z " fill="#CFE2E8" transform="translate(149,105)"/>
<path d="M0 0 C2.31 0.33 4.62 0.66 7 1 C6.01 1.33 5.02 1.66 4 2 C4 2.66 4 3.32 4 4 C5.299375 3.938125 5.299375 3.938125 6.625 3.875 C10.12358468 4.00457721 12.74551597 4.76019656 16 6 C16 6.33 16 6.66 16 7 C10.36375658 7.23952163 5.51426608 6.38279585 0.0625 5 C-0.71673828 4.80921875 -1.49597656 4.6184375 -2.29882812 4.421875 C-4.20099248 3.9550862 -6.10076009 3.47854864 -8 3 C-8 2.67 -8 2.34 -8 2 C-5.36 1.67 -2.72 1.34 0 1 C0 0.67 0 0.34 0 0 Z " fill="#646555" transform="translate(66,127)"/>
<path d="M0 0 C2.18094438 3.27141657 2.18744729 3.95612744 2 7.6875 C1.88685597 12.50319291 2.63497641 16.39304539 4 21 C3.01 21 2.02 21 1 21 C-1.44466726 13.23226694 -2.48176222 7.83714387 0 0 Z " fill="#634956" transform="translate(3,33)"/>
<path d="M0 0 C7.26 0.33 14.52 0.66 22 1 C22 1.66 22 2.32 22 3 C13.94484091 4.03335117 7.48957478 4.42546443 0 1 C0 0.67 0 0.34 0 0 Z " fill="#2E3D18" transform="translate(139,143)"/>
<path d="M0 0 C0.66 0.33 1.32 0.66 2 1 C2 1.66 2 2.32 2 3 C2.99 3 3.98 3 5 3 C3.66197896 6.60236433 2.01142412 9.7314358 0 13 C-0.68096422 14.32608822 -1.35330586 15.65686601 -2 17 C-3.44715727 13.12813552 -2.5441918 10.1767672 -1.5625 6.25 C-1.27503906 5.07953125 -0.98757812 3.9090625 -0.69140625 2.703125 C-0.46324219 1.81109375 -0.23507813 0.9190625 0 0 Z " fill="#C6D8DF" transform="translate(139,102)"/>
<path d="M0 0 C0.33 0 0.66 0 1 0 C1.89659598 7.77049853 -0.94471504 13.43380026 -5 20 C-5.66 20.33 -6.32 20.66 -7 21 C-6.67 20.236875 -6.34 19.47375 -6 18.6875 C-4.82563314 16.00930865 -4.82563314 16.00930865 -5 13 C-5.99 13.495 -5.99 13.495 -7 14 C-5.87548273 11.0280615 -4.77706209 8.66559313 -3 6 C-2.67 6.66 -2.34 7.32 -2 8 C-0.03177114 6.03177114 -0.33751619 2.65191291 0 0 Z " fill="#666C5B" transform="translate(188,114)"/>
<path d="M0 0 C-3.3 2.97 -6.6 5.94 -10 9 C-12.475 8.01 -12.475 8.01 -15 7 C-15.33 6.01 -15.66 5.02 -16 4 C-14.9171875 4.4021875 -14.9171875 4.4021875 -13.8125 4.8125 C-12.4203125 4.9053125 -12.4203125 4.9053125 -11 5 C-8.39585286 2.64587234 -8.39585286 2.64587234 -6 0 C-3.3047908 -1.07808368 -2.60944584 -1.30472292 0 0 Z " fill="#604852" transform="translate(42,21)"/>
<path d="M0 0 C5.77807024 -0.2358396 10.51324804 0.13216954 16 2 C16 2.99 16 3.98 16 5 C10.58201328 4.30834212 5.3177215 3.24200752 0 2 C0 1.34 0 0.68 0 0 Z " fill="#35411F" transform="translate(33,122)"/>
<path d="M0 0 C0.33 0 0.66 0 1 0 C1.51345509 8.30085731 0.70721995 14.51935975 -3 22 C-3.66 21.01 -4.32 20.02 -5 19 C-4.609375 17.08984375 -4.609375 17.08984375 -3.75 14.9375 C-1.9362084 10.03623204 -0.91147722 5.13644224 0 0 Z " fill="#5A414C" transform="translate(66,34)"/>
<path d="M0 0 C0.66 0 1.32 0 2 0 C2.33 1.65 2.66 3.3 3 5 C3.99 5.33 4.98 5.66 6 6 C6 4.02 6 2.04 6 0 C6.33 0 6.66 0 7 0 C7 2.31 7 4.62 7 7 C4.35261084 8.4606285 3.10551666 9 0 9 C0 9.99 0 10.98 0 12 C-0.66 12 -1.32 12 -2 12 C-1.34 8.04 -0.68 4.08 0 0 Z " fill="#A5B0BE" transform="translate(168,109)"/>
<path d="M0 0 C5.91492272 0.45224761 11.35199888 1.1582605 17 3 C13.45016943 5.12989834 10.10722806 5.70662657 6 6 C3.5625 5.0625 3.5625 5.0625 2 4 C3.65 3.67 5.3 3.34 7 3 C4.69 2.34 2.38 1.68 0 1 C0 0.67 0 0.34 0 0 Z " fill="#6D6E62" transform="translate(149,75)"/>
<path d="M0 0 C0.66 0.33 1.32 0.66 2 1 C2.99439109 6.243153 3.26178377 10.74256763 2 16 C1.01 16.66 0.02 17.32 -1 18 C-0.505 9.09 -0.505 9.09 0 0 Z " fill="#2C3A15" transform="translate(186,105)"/>
<path d="M0 0 C3.49695404 0.64758408 6.12552877 1.90241288 9 4 C9.8125 6.1875 9.8125 6.1875 10 8 C7.03 7.505 7.03 7.505 4 7 C3.67 5.68 3.34 4.36 3 3 C2.34 3 1.68 3 1 3 C0.67 2.01 0.34 1.02 0 0 Z " fill="#E7CCDF" transform="translate(14,58)"/>
<path d="M0 0 C2.31 0.33 4.62 0.66 7 1 C7 1.33 7 1.66 7 2 C5.35 2 3.7 2 2 2 C2 2.66 2 3.32 2 4 C3.670625 3.9690625 3.670625 3.9690625 5.375 3.9375 C9 4 9 4 11 5 C10.67 5.66 10.34 6.32 10 7 C6.37 6.34 2.74 5.68 -1 5 C-1 4.34 -1 3.68 -1 3 C-1.99 3.33 -2.98 3.66 -4 4 C-4.99 3.01 -5.98 2.02 -7 1 C-4.69 1.33 -2.38 1.66 0 2 C0 1.34 0 0.68 0 0 Z " fill="#636454" transform="translate(31,120)"/>
<path d="M0 0 C0.33 0 0.66 0 1 0 C1.19601027 2.70795726 1.38204839 5.41599805 1.5625 8.125 C1.61857422 8.88554688 1.67464844 9.64609375 1.73242188 10.4296875 C2.01498074 14.79993128 1.93147699 18.68070669 1 23 C0.34 23 -0.32 23 -1 23 C-0.67 15.41 -0.34 7.82 0 0 Z " fill="#3A4524" transform="translate(97,74)"/>
<path d="M0 0 C2.64 0 5.28 0 8 0 C7.01 0.495 7.01 0.495 6 1 C5.67 6.61 5.34 12.22 5 18 C4.67 18 4.34 18 4 18 C3.87882812 16.92878906 3.75765625 15.85757813 3.6328125 14.75390625 C3.46402399 13.35671248 3.29472687 11.95958009 3.125 10.5625 C3.04636719 9.85544922 2.96773438 9.14839844 2.88671875 8.41992188 C2.66072324 6.60326568 2.33699273 4.79937478 2 3 C1.34 2.67 0.68 2.34 0 2 C0 1.34 0 0.68 0 0 Z " fill="#2C3B15" transform="translate(94,66)"/>
<path d="M0 0 C0.350625 0.598125 0.70125 1.19625 1.0625 1.8125 C3.71268783 4.80464755 6.27773184 5.59537051 10 7 C10 7.99 10 8.98 10 10 C9.34 10 8.68 10 8 10 C8 9.01 8 8.02 8 7 C6.35 7 4.7 7 3 7 C2.67 7.99 2.34 8.98 2 10 C1.34 9.67 0.68 9.34 0 9 C-1.28571429 2.57142857 -1.28571429 2.57142857 0 0 Z " fill="#C9A3C2" transform="translate(36,40)"/>
<path d="M0 0 C2.42581871 2.42581871 2.96355664 4.07433869 3.09765625 7.48046875 C3.08605469 8.37378906 3.07445312 9.26710938 3.0625 10.1875 C3.05347656 11.08855469 3.04445312 11.98960938 3.03515625 12.91796875 C3.02355469 13.60503906 3.01195312 14.29210937 3 15 C2.67 15 2.34 15 2 15 C1.67 12.69 1.34 10.38 1 8 C0.67 11.3 0.34 14.6 0 18 C-0.33 18 -0.66 18 -1 18 C-1.02707139 15.75006641 -1.04642829 13.50003905 -1.0625 11.25 C-1.07410156 9.99703125 -1.08570313 8.7440625 -1.09765625 7.453125 C-1.02021027 4.71463499 -0.82780815 2.58119707 0 0 Z " fill="#606954" transform="translate(186,98)"/>
<path d="M0 0 C1.29550781 0.11794922 1.29550781 0.11794922 2.6171875 0.23828125 C5.125 0.6875 5.125 0.6875 9.125 2.6875 C5.825 2.6875 2.525 2.6875 -0.875 2.6875 C-0.875 3.0175 -0.875 3.3475 -0.875 3.6875 C-3.185 3.6875 -5.495 3.6875 -7.875 3.6875 C-7.545 2.6975 -7.215 1.7075 -6.875 0.6875 C-4.320304 -0.589848 -2.82820227 -0.28114177 0 0 Z " fill="#535B44" transform="translate(106.875,66.3125)"/>
<path d="M0 0 C6.8218683 -0.38614349 12.49577707 0.99134292 19 3 C19 3.33 19 3.66 19 4 C16.77027727 3.88534579 14.54121247 3.75785234 12.3125 3.625 C11.07113281 3.55539063 9.82976562 3.48578125 8.55078125 3.4140625 C5.30682228 3.03577906 2.93432815 2.38020024 0 1 C0 0.67 0 0.34 0 0 Z " fill="#737469" transform="translate(129,143)"/>
<path d="M0 0 C0.33 0 0.66 0 1 0 C3.81573751 5.96273825 2.75822476 11.6677986 2 18 C1.67 18 1.34 18 1 18 C0.04380267 14.00204108 -0.1039592 10.29196078 -0.0625 6.1875 C-0.05347656 5.02605469 -0.04445312 3.86460938 -0.03515625 2.66796875 C-0.02355469 1.78753906 -0.01195312 0.90710938 0 0 Z " fill="#C0D1D9" transform="translate(160,104)"/>
<path d="M0 0 C5.28 0.33 10.56 0.66 16 1 C11.70308151 3.14845925 9.70490411 3.33016871 5 3 C2.0625 2 2.0625 2 0 1 C0 0.67 0 0.34 0 0 Z " fill="#364623" transform="translate(104,136)"/>
<path d="M0 0 C2.23551759 3.35327639 2.17283528 3.90743657 1.625 7.6875 C1.51414062 8.49574219 1.40328125 9.30398437 1.2890625 10.13671875 C1.19367187 10.75160156 1.09828125 11.36648437 1 12 C-0.32 11.67 -1.64 11.34 -3 11 C-2.34 11 -1.68 11 -1 11 C-1.020625 9.9275 -1.04125 8.855 -1.0625 7.75 C-1.0142016 4.85209576 -0.86844115 2.71387859 0 0 Z " fill="#AA839B" transform="translate(39,87)"/>
<path d="M0 0 C1.4800841 0.11362262 2.95910074 0.24122908 4.4375 0.375 C5.26121094 0.44460937 6.08492187 0.51421875 6.93359375 0.5859375 C7.95646484 0.79089844 7.95646484 0.79089844 9 1 C9.33 1.66 9.66 2.32 10 3 C6.7 3 3.4 3 0 3 C0 2.01 0 1.02 0 0 Z " fill="#313E1A" transform="translate(57,126)"/>
<path d="M0 0 C2.46800047 1.15173355 4.04783565 2.04783565 6 4 C5.67 4.99 5.34 5.98 5 7 C5.66 7 6.32 7 7 7 C6.67 7.66 6.34 8.32 6 9 C1.2 5.67692308 1.2 5.67692308 0.1875 2.25 C0.125625 1.5075 0.06375 0.765 0 0 Z " fill="#E5CBDC" transform="translate(10,54)"/>
<path d="M0 0 C0.66 0 1.32 0 2 0 C1.67 3.3 1.34 6.6 1 10 C0.34 10 -0.32 10 -1 10 C-1.125 2.25 -1.125 2.25 0 0 Z " fill="#2F3C18" transform="translate(7,79)"/>
<path d="M0 0 C0.66 0.66 1.32 1.32 2 2 C1.64700993 5.44165321 0.95418308 7.06872538 -1 10 C-1.66 9.67 -2.32 9.34 -3 9 C-2.01 6.03 -1.02 3.06 0 0 Z " fill="#52593E" transform="translate(89,116)"/>
<path d="M0 0 C0.33 0.66 0.66 1.32 1 2 C1.66 2 2.32 2 3 2 C2.67 3.98 2.34 5.96 2 8 C1.34 7.34 0.68 6.68 0 6 C-0.99 6.66 -1.98 7.32 -3 8 C-1.125 2.25 -1.125 2.25 0 0 Z " fill="#C1D1DA" transform="translate(149,105)"/>
<path d="M0 0 C0.99 0.495 0.99 0.495 2 1 C2 1.66 2 2.32 2 3 C2.99 3 3.98 3 5 3 C4.34 4.65 3.68 6.3 3 8 C2.01 7.67 1.02 7.34 0 7 C0 4.69 0 2.38 0 0 Z " fill="#D2E6EB" transform="translate(139,102)"/>
<path d="M0 0 C0.33 1.32 0.66 2.64 1 4 C1.66 4 2.32 4 3 4 C2.67 5.32 2.34 6.64 2 8 C1.67 7.34 1.34 6.68 1 6 C0.34 6 -0.32 6 -1 6 C-1.33 6.66 -1.66 7.32 -2 8 C-1.125 2.25 -1.125 2.25 0 0 Z " fill="#5F604E" transform="translate(8,73)"/>
<path d="M0 0 C4.02992782 0.55312735 8.02022924 1.1558062 12 2 C12 2.33 12 2.66 12 3 C8.8125 3.75 8.8125 3.75 5 4 C2.0625 2.0625 2.0625 2.0625 0 0 Z " fill="#475738" transform="translate(132,140)"/>
<path d="M0 0 C2.64 0 5.28 0 8 0 C8.33 0.99 8.66 1.98 9 3 C6.03 2.67 3.06 2.34 0 2 C0 1.34 0 0.68 0 0 Z " fill="#2E3B17" transform="translate(70,129)"/>
<path d="M0 0 C0.99 0 1.98 0 3 0 C3.625 2.8125 3.625 2.8125 4 6 C3.01 7.485 3.01 7.485 2 9 C1.34 6.03 0.68 3.06 0 0 Z " fill="#374724" transform="translate(182,96)"/>
<path d="M0 0 C2.4375 0.6875 2.4375 0.6875 4.4375 1.6875 C4.1075 2.3475 3.7775 3.0075 3.4375 3.6875 C-1.0175 2.6975 -1.0175 2.6975 -5.5625 1.6875 C-2.5625 -0.3125 -2.5625 -0.3125 0 0 Z " fill="#33421F" transform="translate(164.5625,79.3125)"/>
<path d="M0 0 C2.92879371 0.62759865 5.36095629 1.58622659 8 3 C7.34 3.66 6.68 4.32 6 5 C5.01 5 4.02 5 3 5 C3 4.34 3 3.68 3 3 C2.34 3 1.68 3 1 3 C0.67 2.01 0.34 1.02 0 0 Z " fill="#F6E6F1" transform="translate(14,58)"/>
<path d="M0 0 C0.1875 2.875 0.1875 2.875 0 6 C-0.99 6.66 -1.98 7.32 -3 8 C-3 5.69 -3 3.38 -3 1 C-1 0 -1 0 0 0 Z " fill="#32411E" transform="translate(188,115)"/>
<path d="M0 0 C6.15234375 0.5859375 6.15234375 0.5859375 8 1 C8.33 1.66 8.66 2.32 9 3 C6.03 2.67 3.06 2.34 0 2 C0 1.34 0 0.68 0 0 Z " fill="#2F3D19" transform="translate(148,76)"/>
<path d="M0 0 C0.33 1.32 0.66 2.64 1 4 C-2.75 7 -2.75 7 -5 7 C-5 6.34 -5 5.68 -5 5 C-4.34 5 -3.68 5 -3 5 C-2.5359375 4.0409375 -2.5359375 4.0409375 -2.0625 3.0625 C-1 1 -1 1 0 0 Z " fill="#36401F" transform="translate(16,65)"/>
<path d="M0 0 C0.66 0.33 1.32 0.66 2 1 C1.67 1.33 1.34 1.66 1 2 C1.66 2.66 2.32 3.32 3 4 C1.35 4.66 -0.3 5.32 -2 6 C-2.33 4.35 -2.66 2.7 -3 1 C-2.01 0.67 -1.02 0.34 0 0 Z " fill="#5E6851" transform="translate(167,140)"/>
<path d="M0 0 C6.625 -0.125 6.625 -0.125 10 1 C10 1.66 10 2.32 10 3 C3.375 2.25 3.375 2.25 0 0 Z " fill="#2C3B16" transform="translate(92,134)"/>
<path d="M0 0 C3.875 1.875 3.875 1.875 5 3 C5.04080783 4.99958364 5.04254356 7.00045254 5 9 C2.3534665 6.3534665 1.40058003 3.43778736 0 0 Z " fill="#553B47" transform="translate(61,24)"/>
<path d="M0 0 C-4.1795645 2.78637633 -6.14668677 1.79562512 -11 1 C-11 0.67 -11 0.34 -11 0 C-6.98195309 -0.84098656 -3.98196457 -1.05404945 0 0 Z " fill="#526346" transform="translate(162,79)"/>
<path d="M0 0 C0.33 0.99 0.66 1.98 1 3 C-0.65 4.65 -2.3 6.3 -4 8 C-3.50168276 4.31245243 -2.89932357 2.39509338 0 0 Z " fill="#563D48" transform="translate(8,28)"/>
</svg>
